<?xml version="1.0" encoding="utf-8"?>
<!-- Generator: Adobe Illustrator 22.0.0, SVG Export Plug-In . SVG Version: 6.00 Build 0)  -->
<svg version="1.1" id="Capa_1" xmlns="http://www.w3.org/2000/svg" xmlns:xlink="http://www.w3.org/1999/xlink" x="0px" y="0px"
	 viewBox="0 0 1224 792" style="enable-background:new 0 0 1224 792;" xml:space="preserve">
<style type="text/css">
	.st0{fill:#E71E63;}
	.st1{fill:#314E9D;}
	.st2{fill:#FFFFFF;}
</style>
<g>
	<g>
		<path class="st0" d="M394,408.6c0,102-82.7,184.6-184.6,184.6c-6.4,0-12.7-0.3-18.9-1c-1.7-0.2-3.4-0.4-5.1-0.6
			C94.7,579.9,24.7,502.4,24.7,408.6c0-102,82.7-184.6,184.6-184.6c97.1,0,176.6,74.9,184.1,170c0,0.2,0,0.3,0,0.5
			C393.8,399.1,394,403.8,394,408.6z"/>
		<path class="st1" d="M394,408.6c0,102-82.7,184.6-184.6,184.6c-6.4,0-12.7-0.3-18.9-1l-57.8-55.4l5.4-70.3l18.5-4.6L142,448.6
			l-2.1-52.1l-2.1-20.4l2.1-4.3l17.7,17.2l1.1-9.7l-23.1-22v-14l3.2-55.3l21.2-2.4l15.6,15l3.8-11.8l9.1-3.2h10.7l20.1,19.6l3-21.7
			l15.8,15.8l7.2-15.8l14.2,14.2l5.6-9.9h17.2L393.4,394c0,0.2,0,0.3,0,0.5C393.8,399.1,394,403.8,394,408.6z"/>
		<g>
			<path class="st2" d="M148.9,332.4v-9.3h15.7v37.5h-20.2c-7.9,0-11.9-4.3-11.9-13v-50.9c0-8.8,4-13.2,11.9-13.2h7.1
				c8.7,0,13.1,4.5,13.1,13.4v8.4h-10.3v-6.9c0-3.7-1.5-5.6-4.4-5.6h-2.6c-3,0-4.5,1.9-4.5,5.6v47.2c0,3.7,1.5,5.6,4.5,5.6h7v-18.9
				H148.9z"/>
			<path class="st2" d="M192.7,304.3v-6.8c0-3.1-1.5-4.6-4.5-4.6h-1.6c-2.9,0-4.4,1.5-4.4,4.6v12.8c0,1.4,0.3,2.4,0.9,2.9
				c0.6,0.5,1.5,1.1,2.8,1.9l9.8,5.3c2.1,1.2,3.7,2.2,4.6,2.8c0.9,0.7,1.6,1.5,2.1,2.5c0.5,1,0.8,2.8,0.8,5.5v16.4
				c0,8.7-4.1,13-12.4,13h-6.3c-8.2,0-12.3-4.7-12.3-14.2v-3.9h10.3v4.2c0,3,1.5,4.5,4.6,4.5h1.8c2.7,0,4.1-1.5,4.1-4.5v-13.1
				c0-1.4-0.3-2.4-0.9-2.9c-0.6-0.5-1.5-1.1-2.8-1.9l-9.8-5.5c-2.1-1.1-3.7-2.1-4.7-2.9c-1-0.8-1.7-1.8-2.1-3.1
				c-0.4-1.3-0.6-2.9-0.6-4.9v-15.8c0-8.8,4.1-13.2,12.3-13.2h6.4c8.2,0,12.3,4.4,12.3,13.2v7.5H192.7z"/>
			<path class="st2" d="M245.1,283.6V346c0,9.7-4.1,14.6-12.4,14.6h-8.7c-8.2,0-12.3-4.9-12.3-14.7v-62.3h10.3v62.7
				c0,3.4,1.5,5,4.5,5h4.2c2.8,0,4.2-1.7,4.2-5v-62.7H245.1z"/>
			<path class="st2" d="M274.5,304.3v-6.8c0-3.1-1.5-4.6-4.5-4.6h-1.6c-2.9,0-4.4,1.5-4.4,4.6v12.8c0,1.4,0.3,2.4,0.9,2.9
				c0.6,0.5,1.5,1.1,2.8,1.9l9.8,5.3c2.1,1.2,3.7,2.2,4.6,2.8c0.9,0.7,1.6,1.5,2.1,2.5c0.5,1,0.8,2.8,0.8,5.5v16.4
				c0,8.7-4.1,13-12.4,13H266c-8.2,0-12.3-4.7-12.3-14.2v-3.9h10.3v4.2c0,3,1.5,4.5,4.6,4.5h1.8c2.7,0,4.1-1.5,4.1-4.5v-13.1
				c0-1.4-0.3-2.4-0.9-2.9c-0.6-0.5-1.5-1.1-2.8-1.9l-9.8-5.5c-2.1-1.1-3.7-2.1-4.7-2.9c-1-0.8-1.7-1.8-2.1-3.1
				c-0.4-1.3-0.6-2.9-0.6-4.9v-15.8c0-8.8,4.1-13.2,12.3-13.2h6.4c8.2,0,12.3,4.4,12.3,13.2v7.5H274.5z"/>
			<path class="st2" d="M166.4,371.6l-12.4,77h-12.2l-12.4-77h10.2l8.4,58.8l8.4-58.8H166.4z"/>
			<path class="st2" d="M172.3,448.6v-77h10.3v77H172.3z"/>
			<path class="st2" d="M216.7,448.6h-24.5v-77h10.3v67.7h14.2V448.6z"/>
			<path class="st2" d="M247.1,448.6h-24.5v-77h10.3v67.7h14.2V448.6z"/>
			<path class="st2" d="M142.8,536.7h-10.3v-63.8c0-8.8,4.1-13.2,12.3-13.2h7.7c8.2,0,12.3,4.4,12.3,13.2v63.8h-10.3v-28.2h-11.8
				V536.7z M154.6,499.1v-25.6c0-3-1.5-4.5-4.5-4.5h-2.8c-3,0-4.5,1.5-4.5,4.5v25.6H154.6z"/>
			<path class="st2" d="M198.5,536.7H174v-77h10.3v67.7h14.2V536.7z"/>
			<path class="st2" d="M228.3,497.1c5.6,1.6,8.5,4.5,8.5,8.8v19.3c0,7.7-3.9,11.5-11.7,11.5h-20.7v-77H222
				c9.2,0,13.7,4.7,13.7,13.9v14.8c0,4.4-2.5,7.2-7.4,8.2V497.1z M214.7,492.1h4.8c3.9,0,5.9-1.9,5.9-5.6v-12c0-3.7-1.5-5.6-4.6-5.6
				h-6.1V492.1z M214.7,527.3h7.7c2.7,0,4.1-1.1,4.1-3.3v-17.1c0-3.6-2-5.5-6.1-5.5h-5.7V527.3z"/>
			<path class="st2" d="M255.1,536.7h-10.3v-63.8c0-8.8,4.1-13.2,12.3-13.2h7.7c8.2,0,12.3,4.4,12.3,13.2v63.8h-10.3v-28.2h-11.8
				V536.7z M266.9,499.1v-25.6c0-3-1.5-4.5-4.5-4.5h-2.8c-3,0-4.5,1.5-4.5,4.5v25.6H266.9z"/>
		</g>
	</g>
	<g>
		<path class="st2" d="M464.9,426.9v-17.2h28.9v69.2h-37.2c-14.6,0-21.9-8-21.9-23.9v-93.7c0-16.2,7.3-24.3,21.9-24.3h13
			c16.1,0,24.1,8.2,24.1,24.7v15.4h-19v-12.7c0-6.9-2.7-10.3-8.1-10.3H462c-5.5,0-8.3,3.4-8.3,10.3v87c0,6.9,2.8,10.3,8.3,10.3h12.9
			v-34.8H464.9z"/>
		<path class="st2" d="M545.6,375.1v-12.5c0-5.7-2.8-8.5-8.3-8.5h-3c-5.4,0-8.1,2.8-8.1,8.5v23.5c0,2.6,0.5,4.4,1.6,5.3
			c1.1,0.9,2.8,2.1,5.1,3.6l18,9.7c4,2.2,6.8,4,8.4,5.2c1.6,1.3,2.9,2.8,3.9,4.5c0.9,1.8,1.4,5.2,1.4,10.2V455
			c0,15.9-7.6,23.9-22.9,23.9H530c-15.2,0-22.7-8.7-22.7-26.1v-7.1h19v7.7c0,5.5,2.8,8.3,8.5,8.3h3.4c5,0,7.5-2.8,7.5-8.3v-24.1
			c0-2.6-0.5-4.4-1.6-5.3c-1.1-0.9-2.8-2.1-5.1-3.6l-18-10.1c-4-2.1-6.8-3.9-8.6-5.3c-1.8-1.4-3.1-3.3-3.9-5.6
			c-0.8-2.3-1.2-5.3-1.2-9v-29.1c0-16.2,7.6-24.3,22.7-24.3h11.9c15.2,0,22.7,8.1,22.7,24.3v13.8H545.6z"/>
		<path class="st2" d="M642.1,336.9V452c0,17.9-7.6,26.9-22.9,26.9h-16c-15.2,0-22.7-9-22.7-27.1V336.9h19v115.5
			c0,6.2,2.8,9.3,8.3,9.3h7.7c5.1,0,7.7-3.1,7.7-9.3V336.9H642.1z"/>
		<path class="st2" d="M696.2,375.1v-12.5c0-5.7-2.8-8.5-8.3-8.5h-3c-5.4,0-8.1,2.8-8.1,8.5v23.5c0,2.6,0.5,4.4,1.6,5.3
			c1.1,0.9,2.8,2.1,5.1,3.6l18,9.7c4,2.2,6.8,4,8.4,5.2c1.6,1.3,2.9,2.8,3.9,4.5c0.9,1.8,1.4,5.2,1.4,10.2V455
			c0,15.9-7.6,23.9-22.9,23.9h-11.7c-15.2,0-22.7-8.7-22.7-26.1v-7.1h19v7.7c0,5.5,2.8,8.3,8.5,8.3h3.4c5,0,7.5-2.8,7.5-8.3v-24.1
			c0-2.6-0.5-4.4-1.6-5.3c-1.1-0.9-2.8-2.1-5.1-3.6l-18-10.1c-4-2.1-6.8-3.9-8.6-5.3c-1.8-1.4-3.1-3.3-3.9-5.6
			c-0.8-2.3-1.2-5.3-1.2-9v-29.1c0-16.2,7.6-24.3,22.7-24.3h11.9c15.2,0,22.7,8.1,22.7,24.3v13.8H696.2z"/>
		<path class="st2" d="M790.5,336.9l-22.9,142h-22.5l-22.9-142h18.8l15.4,108.3l15.4-108.3H790.5z"/>
		<path class="st2" d="M846.5,478.9h-45.1v-142h19v124.8h26.1V478.9z"/>
		<path class="st2" d="M902.4,478.9h-45.1v-142h19v124.8h26.1V478.9z"/>
		<path class="st2" d="M931.3,478.9h-19V361.2c0-16.2,7.6-24.3,22.7-24.3h14.2c15.2,0,22.7,8.1,22.7,24.3v117.6h-19v-52h-21.7V478.9
			z M953,409.7v-47.3c0-5.5-2.8-8.3-8.3-8.3h-5.1c-5.5,0-8.3,2.8-8.3,8.3v47.3H953z"/>
		<path class="st2" d="M1033.9,478.9h-45.1v-142h19v124.8h26.1V478.9z"/>
		<path class="st2" d="M1088.9,405.9c10.4,2.9,15.6,8.3,15.6,16.2v35.6c0,14.1-7.2,21.2-21.5,21.2h-38.2v-142h32.4
			c16.9,0,25.3,8.6,25.3,25.7v27.3c0,8.2-4.5,13.2-13.6,15V405.9z M1063.8,396.8h8.9c7.2,0,10.9-3.4,10.9-10.3v-22.1
			c0-6.9-2.8-10.3-8.5-10.3h-11.3V396.8z M1063.8,461.7h14.2c5,0,7.5-2,7.5-6.1v-31.4c0-6.7-3.8-10.1-11.3-10.1h-10.5V461.7z"/>
		<path class="st2" d="M1138.3,478.9h-19V361.2c0-16.2,7.6-24.3,22.7-24.3h14.2c15.2,0,22.7,8.1,22.7,24.3v117.6h-19v-52h-21.7
			V478.9z M1160,409.7v-47.3c0-5.5-2.8-8.3-8.3-8.3h-5.1c-5.5,0-8.3,2.8-8.3,8.3v47.3H1160z"/>
	</g>
</g>
</svg>
